# xmcd CD database file
#
# Track frame offsets:
#	150
#	12272
#	26457
#	39532
#	55005
#	68390
#	84872
#	99757
#	116907
#	130177
#
# Disc length: 1973 seconds
#
# Revision: 2
# Processed by: cddbd v1.5.2PL0 Copyright (c) Steve Scherf et al.
# Submitted via: CDex 1.79
#
DISCID=6c07b30a
DTITLE=Crystal Gayle - Three Good Reasons
DYEAR=1992
DGENRE=Country
TTITLE0=Why Cry
TTITLE1=A Rose Between Two Thorns
TTITLE2=The Trouble With Me (Is You)
TTITLE3=If The Phone Doesn't Ring, It's Me
TTITLE4=One Less Step Of Footsteps
TTITLE5=The Least That I Can Do
TTITLE6=Love To, Can't Do
TTITLE7=99% Of The Time
TTITLE8=Living In Tears
TTITLE9=Three Good Reasons
EXTD=YEAR: 1992
EXTT0=
EXTT1=
EXTT2=
EXTT3=
EXTT4=
EXTT5=
EXTT6=
EXTT7=
EXTT8=
EXTT9=
PLAYORDER=
